/* XPM */
static char *result[] = {
/* columns rows colors chars-per-pixel */
"64 64 56 1 ",
"  c #202020",
". c #2C2C2C",
"X c gray19",
"o c gray22",
"O c #400000",
"+ c #4C0000",
"@ c #580000",
"# c #640000",
"$ c #700000",
"% c #7C0000",
"& c #543C1C",
"* c #585400",
"= c #706C00",
"- c #744C28",
"; c #400040",
": c #480048",
"> c #500050",
", c #580058",
"< c #600064",
"1 c #6C0070",
"2 c gray25",
"3 c #484848",
"4 c gray31",
"5 c gray33",
"6 c #646464",
"7 c gray44",
"8 c #7C7C7C",
"9 c #880000",
"0 c #980000",
"q c #A40000",
"w c #B00000",
"e c #BC0000",
"r c #C80000",
"t c #D40000",
"y c #E00000",
"u c #EC0000",
"i c #FC0000",
"p c #FC2020",
"a c #B45400",
"s c #CC6000",
"d c #FC7800",
"f c #A86840",
"g c #848400",
"h c #9C9C00",
"j c #FC8820",
"k c #CCC400",
"l c #FCF400",
"z c #E88C58",
"x c #840084",
"c c #9C009C",
"v c gray55",
"b c #989898",
"n c gray66",
"m c #B4B4B4",
"M c #C0C0C0",
"N c #D0D0D0",
/* pixels */
"4ooooooooooooooooooooooooooooooooooooooooooooooooooooooooooooooo",
"4o533333533333353o333333355555533333333355555553333ooo335533333o",
"4uutttttttttq335uuttttttttttttttttttq3o5uuuuyyyyyytttttrrrreeeq3",
"4lrwwt9qt9rq#.35ue9e9e9e%e0e0e%e%erq$.3otqrwrwwr$r%rwr9wq%r0rql.",
"4kgmmmmmmmmmmmmmmmmmmmmmmmmmmmmmmmmmmmmmmmmmmmmmmmmmmmmmmmmmmkk=",
"4h*7788888888888888888888888888888888888888888888888888888777=z*",
"4&q8888bbbbbbbbbbbbbbbbbbbbbbbbbbbbbbbbbbbbbbbbbbbbbbbbbb8788@f.",
"4e%b8pqOO5$$$$$$$$$$$$$$$$$$$$$$$$$$$$$$$$$$$$$$$$qwiy8OOO8M7@O.",
"4eqn8qMb7O8nMNMMmmmmmmmmmmmmmmmmmmmmmmmmmmmmmmmmMMMMM8O87bp87@O.",
"4%#mbObMb8vbnnv8nNMmmmmmmmmmmmmmmmmmmmmmmmmmmmmv16Mmnnn7nNq78OO.",
"43.NnObnMb88bb5,7nNNMMmmmmmmmmmmmmmmmmmmmmmmMMv6<>bnnbbnN8O8b  .",
"4ooNm57bmMb88v>,,,8nNMMMMMmm>75>>>>asdmmmmMMv6<,>>bbbbnNM65vn ..",
"4ttmNO8bnmMb763:>>,,8nmmmmmm>>>>>8>aasjmmmv6<,>>>3bbbnMMn8Obn@@t",
"499mN$bvbnm6,763::>>,,,8vmmm7>>>>>>avmmv6<<,,>>>377>6nMnv8Onm@@w",
"4q9mNwnbvb61<3763::::x,,,7vmm>>>>>>vmv6<<,x>>>:3751<<6nb8v$nm@@0",
"4qqmm0mbvv:<1<,363o::1:,,,,mm>>>>>>mm,<<,>1::o363><<11bv8v$nm@@%",
"499mm9Mnbv::<1<<,35o;;:::,5mm>>>>>>mm5::::::o33:>,<111v8vv$nm@@%",
"4q#mm$Nmnb3::<11<,:;;;;::vmm7>>>>>>7mmv:::;;;::>,<1115v8vb$mm@@9",
"4w#mm$NMmb63:,<<1<,1;;;:v>7m>>>>>>>>m7:v:;;:,::,<111588vvn$mm@@$",
"4++mm$NN6>7553,<<1,x>;;:>:>mm>>>>>>mm::::::,1>,<<1586336bn$mmO@O",
"4..mm$mN,>:35553<<1,x>>>:>:86>>>>>>68::::::1,,<<5v863;;:bn$mm  .",
"453mm$mN<,>::;o3356,,,,:::>>>>>>>>>>::::::>>,56v85>:;;;:nn$mm ..",
"4uuMM%Mm<<>>:;;;::,c,,,::>>>>>>>>>>>:::::>,,c,,,>>:;;;;,nn$mm@@.",
"4u9NN0NM,<,>::;;;::x,,,>>>>>>>>>>>>>>::>>,,,c,,,>::;;;:,bn%mm@O.",
"4uwMM9Mb7,<>>:;;:;:1,,>>>>>>55677655>>>,,,,,x,,>::;;;;:7bn%mm@O.",
"4e#mm%mbb73,>:::>:>,1>>>>>>>61c11c16>>,,,,,x,,>:::;;;37bbm9mm@O.",
"4ewmm$m>,367766532X:>,x,>>>>8c1111c8>,>,,x,,,5532o23563<1M0MM@O.",
"4e$nn$n>>,,,,>:>:>:>:>,x1>>>51111115>>,1x,,,,>::::;::>,<1N0NN@O.",
"4rqnn#n>>>,,,>>:>:>:>>>>>>>>8c1111c8>,>,>,,,>:::::::>,,<<M0MM@O.",
"4q0bb+b>>,>,>,>>>>>>>>>>>>>>51c31c15>>,>,,,>>:::::::>><1<M9MM@O.",
"43onn@n>>>,>,>>>>>>5>>>>5>>>85131158>,>5,>>>5:::::::>><<>m%mm  .",
"455nn#n6>>>>>>>>37>>>>>5>>>>58855885>>>,5>>:>:73:::>>,<,6m$mm ..",
"4eemm$mb6>>>>377>>>>>>7>>>>>>>5885>>>>,>>7>>:::>773>>,,6bm$mm@@e",
"4wqmm$mmmbbbb7>>>>>>>7>>>>>>>>>>>>>>>>>>>>7:>::::>7bbbbmnn#nn@@q",
"4%9mm$mmbb7>>>>>>>>>7>>>>>>>>>>>>>>>>>>>>>>7:>:>:>,,,7bbbb@bb@@$",
"4%qmm$mm>>>>>>>>>>>7>>>>7>7>>>>>>>>>>7>7>>>>7:>:>,,,,,>>vv+vv@@$",
"49%mm$mm>>>>>>>>>>7>>>>6b7>>>>>>>>>>>>7b6>>>>7>>>>,,,,>>bb@bb@@9",
"49%mm%mm7>>>>>>>>7>>>>>b>>>>>>>>>>>>>>>>b>>>>>7>>,,,,,>7bb#bb@@$",
"4$9mm%mmb>>>>>>>7>>>>>b>>>>>>>>>>>>>>>>>>b>>>>>7>>,>,>>bnn#nn@@$",
"4O+mm9mmm7>>>>>7>>>>>>>>>>>>>>>>>>>>>>>>>>>>>>>>7>>>,>7mmm#mm@@O",
"4..MM9MMMm7>>>7>>>>>>b>>>>>>>>>>>>>>>>>>>>b>>>>>>7>>>7mmmm$mm  .",
"435NNqNNNmmbbbb>>>>>bmc>>>>>>7>>>>7>>>>>>cmb>>>>>bbbbmmmmm$mm ..",
"4utMM0MMMmmmmmbb>>>bmmm7>>>>>>>>>>>>>>>>7mmmb>>>bbmmmmmmMM9MM@@.",
"4tqmm0mmmmmmm8aa8mmmm8a>>>>>>>>>>>>>>>>>>a8mmmm8aa8mmMMMMM9MM@O.",
"4tqmm9mmmmmmmaaaaaaaaaa-->>7m>>>>>>m7>>--aaaaaaaaaaMMMMNNN0NN@O.",
"4t9mm9mmmmmmmm86-aaaa--8mmmm>>>>>>>>mmmm8--aaaa-68mmmMMMMM0MM@O.",
"4tqmm%mmmmmmmvaaaaaaaaaammm>>>>>>>>>>mmmaaaaaaaaaavmmmmmMM9MM@O.",
"4tqnn$nnnnmmma--vaa-mv-am8>>>>>>>>>>>>8ma-vm-aav--ammmmmmm$mm@O.",
"4rqnn$nnnnnnm-8vma-mmmm85>>>>>>>>>>>>>>58mmmm-amv8-mmmmmmm$mm@O.",
"4q#mm$mmmmmmmmmmma-mm85>>>>>>>>>>>>>>>>>>58mm-ammmmmmmmmmm$mmOO.",
"43.mm$bmmmmmmmmmmvam>>>>>>>>>8>>>>8>>>>>>>>>mavmmmmmmmmmmb$mm  .",
"4o5mm$8mmmmmmmmmmmmm85>>>>>6m>>>>>>m6>>>>>58mmmmmmmmmmmmm8$mm ..",
"4ttmm8$8bmmmmmmmmmmmmm85>>6m8>>>>>>8m6>>58mmmmmmmmmmmmmb8$8mm@@e",
"4q@8mm8$$$8bmmmmmmmmmmmmmmmm>>>>>>>>mmmmmmmmmmmmmmmmbv$$$8bm8@@$",
"4%%@8mmmb8$$$$8bmmmmmmmmmmmm6>>>>>>6mmmmmmmmmmmmb8$$$$vbmmm8@@@+",
"4%@@@58mmmmmb8$$$8bmmmmmmmmmm6>>>>6mmmmmmmmmmb8$$$8bmmmmm85@@@$9",
"40@@@@@58mmmmmmb8$$$8bmmmmmmmm6>>6mmmmmmmmb8$$$8bmmmmm85@@@@@#$q",
"4q%q#@#@@@@58mmmmmb8$$$8bmmmmmm66mmmmmmb8$$$8bmmmmm85@@@@@@$@q$q",
"4q%%#00#@@@@@@58mmmmmb8$$$$8bmmmmmmb8$$$$8bmmmmm85@@@@@@@$q$@#q+",
"40@q##9#%%q@@@@@@O58mmmmmb8$$$8bb8$$$8bmmmmm85O...@@@@q@q$q$q#q$",
"4+++++++++++++++OO  .58mmmmmb8$$$$8bmmmm85+++OO ..@OO+++++++++++",
"4..................     .58mmmmmmmmmm85     .   .........     ..",
"45o5ooo333335oooo.......     58mm85.     ........oo33533332o2333",
"4444444444444444444444444444444444444444444444444444444444444444"
};
